# xmcd
# 
# Track frame offsets:
#     182
#     12277
#     26610
#     38522
#     52545
#     69235
#     82862
#     102170
#     119957
#     129035
#     146462
#     163402
#     174115
#     186385
#     201055
#     215592
#     229040
#     243260
#     254392
#     267882
#     280852
#     290720
# 
# Disc length: 4054
# 
# Revision: 7
# Processed by: cddbd v1.5.2PL0 Copyright (c) Steve Scherf et al.
# Submitted via: fre:ac v1.0.17
# 
DISCID=2f0fd416
DTITLE=Various Artist - Beautiful Country
DYEAR=1990
DGENRE=Country
TTITLE0=Tammy Wynette - Stand By Your Man   [1968]
TTITLE1=Charly McClain - Radio Heart   [1985]
TTITLE2=Charlie Rich - The Most Beautiful Girl   [1973]
TTITLE3=Lacy J. Dalton - 16th Avenue   [1982]
TTITLE4=Johnny Cash - The City Of New Orleans   [1973]
TTITLE5=W.Jennings and W.Nelson and J.Cash and K.Kristofferson - Highwayman   [1985]
TTITLE6=Dolly Parton - The River Unbroken   [1987]
TTITLE7=Barbara Fairchild - Mississippi   [1972]
TTITLE8=Frankie Laine - Rawhide   [1971]
TTITLE9=Albert Hammond - It Never Rains In Southern California   [1972]
TTITLE10=Crystal Gayle - Too Many Lovers   [1980]
TTITLE11=Tanya Tucker - Would You Lay With Me  (In A Field Of Stone)   [1973]
TTITLE12=Dan Fogelberg - Moutain Pass   [1985]
TTITLE13=Keith Stegall - California   [1985]
TTITLE14=Rosanne Cash - Seven Year Ache   [1981]
TTITLE15=Ricky Skaggs - Crying My Heart Out Over You   [1981]
TTITLE16=Willie Nelson - Heart Of Gold   [1986]
TTITLE17=Roy Orbison - Blue Bayou   [1976]
TTITLE18=Billy Swan - I Can Help   [1974]
TTITLE19=Lynn Anderson - Rose Garden   [1975]
TTITLE20=George Jones With Willie Nelson - I Gotta Get Drunk   [1979]
TTITLE21=Janie Fricke - Homeward Bound   [1981]
EXTD=
EXTT0=
EXTT1=
EXTT2=
EXTT3=
EXTT4=
EXTT5=
EXTT6=
EXTT7=
EXTT8=
EXTT9=
EXTT10=
EXTT11=
EXTT12=
EXTT13=
EXTT14=
EXTT15=
EXTT16=
EXTT17=
EXTT18=
EXTT19=
EXTT20=
EXTT21=
PLAYORDER=
